PathFileType	4	(X/Y/Z)	C:/Users/beibeiliu/ov580/test_trc/User2\sequence.40_training_dense_right.trc
DataRate	CameraRate	NumFrames	NumMarkers	Units	OrigDataRate	OrigDataStartFrame	OrigNumFrames
120	120	8	19	mm	120	29	198
Frame#	Time	ThumbCMC			ThumbMCP			ThumbIP			ThumbTip			IndexMCP			IndexPIP			IndexTip			MiddleMCP			MiddlePIP			MiddleTip			RingMCP			RingPIP			RingTip			PinkyMCP			PinkyPIP			PinkyTip			BackHand1			BackHand2			BackHand3	
		X0	Y0	Z0	X1	Y1	Z1	X2	Y2	Z2	X3	Y3	Z3	X4	Y4	Z4	X5	Y5	Z5	X6	Y6	Z6	X7	Y7	Z7	X8	Y8	Z8	X9	Y9	Z9	X10	Y10	Z10	X11	Y11	Z11	X12	Y12	Z12	X13	Y13	Z13	X14	Y14	Z14	X15	Y15	Z15	X16	Y16	Z16	X17	Y17	Z17	X18	Y18	Z18	
28	0.233333	43.8514	24.9626	29.4028	18.701	14.609	13.8038	-4.56737	4.64759	-3.72593	-24.1333	-5.25552	-18.1083	35.5265	38.1033	-54.0415	25.5954	32.7429	-74.6357	13.8104	26.517	-104.056	69.7163	40.1908	-67.4249	66.492	32.7962	-95.5111	65.3521	24.8537	-128.393	97.7027	31.7936	-66.9319	99.9739	26.3147	-90.3588	100.156	21.4334	-116.768	124.264	19.2792	-51.2475	132.232	10.5572	-73.1017	141.875	6.77451	-92.4386	101.622	46.3436	-6.77658	110.3	50.4068	26.5853	68.632	51.0042	11.9491	
29	0.241667	46.37	25.1946	31.0042	20.9463	13.3756	16.7826	-8.1726	4.33903	-3.86822	-22.9221	-5.02599	-22.255	39.3244	37.559	-56.6165	28.0627	33.1694	-75.9871	18.0092	27.3411	-101.469	72.4103	40.5189	-68.952	69.9692	32.041	-98.5996	64.2243	24.4936	-129.896	99.702	31.8153	-64.2801	99.5517	26.1973	-92.0819	98.6915	22.1024	-119.326	124.011	19.1428	-49.7914	133.937	9.55666	-73.4536	143.326	6.75907	-91.3885	103.111	45.7704	-8.56328	112.207	50.8135	25.604	69.6133	50.1178	15.8497	
30	0.25	44.2514	25.8859	29.2524	19.6103	14.8284	15.5273	-4.59764	4.14019	-2.76507	-19.9788	-5.59708	-18.5506	36.9945	38.0696	-52.1679	29.9065	32.47	-78.3993	19.6572	28.1883	-101.158	72.6416	40.1101	-67.4582	70.0653	32.9804	-99.0808	68.6862	24.7241	-128.649	100.008	32.3762	-66.449	98.5765	26.8814	-91.07	102.74	21.0163	-120.95	122.933	19.5548	-51.389	129.876	10.2195	-74.4617	140.003	7.72572	-92.6252	104.77	45.2646	-7.36245	110.052	49.4384	23.8052	71.4685	51.2435	15.4589	
31	0.258333	45.8838	25.7692	30.4485	19.1752	14.5544	13.2457	-4.63731	5.10116	-3.74162	-23.3746	-5.11624	-20.0389	42.2982	39.3149	-51.8865	28.6418	33.23	-78.0896	21.0521	28.1851	-103.808	73.7202	41.2021	-68.6235	72.3113	33.412	-97.4556	67.0001	25.9641	-129.766	99.006	32.0338	-67.0433	101.603	25.8283	-91.504	99.3947	22.0923	-116.669	125.836	19.3537	-49.9969	130.531	10.3084	-72.3648	138.568	7.64417	-95.2587	103.089	45.4626	-7.57127	108.872	51.8085	26.8403	74.8676	50.9107	14.221	
32	0.266667	44.1185	26.0192	33.9395	17.7222	15.0936	14.1478	-8.1471	6.52977	-4.79247	-23.1173	-4.02943	-21.5444	41.5321	40.5235	-50.6893	25.5637	33.354	-78.1732	19.3874	27.5606	-100.519	72.4626	41.9597	-64.3427	67.484	34.4914	-97.37	69.8933	26.7084	-128.113	99.4709	33.5224	-64.8107	99.895	27.591	-89.9653	102.86	22.1254	-119.171	124.098	21.707	-49.1739	134.372	10.9127	-70.7368	139.992	6.11229	-97.4819	106.109	47.5457	-6.24189	112.839	49.6613	24.3787	74.1432	51.5438	11.7153	
33	0.275	45.5118	26.6175	31.5548	19.4522	16.6168	18.3823	-6.13794	7.4085	-2.64255	-24.8115	-0.29928	-20.9857	37.2327	42.5337	-53.5665	28.3688	37.0882	-76.8716	23.2157	30.4886	-103.363	75.5322	44.5423	-64.2711	69.2594	38.5966	-97.2885	67.3804	29.8414	-126.355	100.914	35.4437	-68.2749	102.263	30.3166	-91.1968	104.307	23.6186	-116.802	125.782	23.4911	-52.2573	133.676	13.5425	-72.4172	143.245	8.42504	-97.738	104.668	50.8349	-6.33552	109.469	51.9537	23.264	70.7054	52.0066	16.2986	
34	0.283333	46.4381	28.8665	28.549	17.8708	20.4617	14.7299	-2.09421	11.481	-4.33087	-24.8276	3.91151	-21.1968	43.8086	44.8806	-54.3299	27.1236	39.7421	-80.7368	22.7895	33.2887	-103.586	70.5488	47.8551	-68.1198	70.0492	40.6757	-97.0811	69.2208	27.9075	-130.104	98.763	37.7151	-66.702	101.962	30.8592	-89.6451	99.855	24.8983	-121.551	124.95	23.3548	-52.7232	133.015	11.7311	-73.7786	138.201	7.19445	-96.8437	107.006	48.8415	-5.42085	110.736	51.4253	26.4343	72.1372	53.7216	12.835	
35	0.291667	47.9416	28.9839	32.0735	18.3407	21.7402	12.8626	-6.08874	13.6621	-5.1723	-19.921	5.40272	-23.3443	38.9057	46.4709	-54.9939	33.477	40.5422	-78.5816	22.2894	34.261	-103.236	73.0888	48.7418	-69.2736	71.4821	41.122	-98.9561	72.9895	28.9548	-128.738	102.037	38.1246	-64.8522	99.4375	32.1805	-93.1736	102.949	25.3185	-121.923	125.013	24.4327	-54.8595	129.823	13.7147	-71.6876	138.208	6.59728	-96.4697	103.296	52.1148	-5.32388	111.394	52.604	28.8049	75.0007	55.1895	13.8899	
